<svg width="22" height="26" viewBox="0 0 22 26" fill="none" xmlns="http://www.w3.org/2000/svg">
<path d="M17.2 11.2627C15.1 11.2627 13.4 12.9627 13.4 15.0627V25.1627H20.9V15.0627C21 12.9627 19.3 11.2627 17.2 11.2627Z" fill="url(#paint0_linear_202_368)" stroke="#2C001B" stroke-width="1.5" stroke-miterlimit="10" stroke-linecap="round" stroke-linejoin="round"/>
<path d="M13.5 22.3627H21" stroke="#2C001B" stroke-width="1.5" stroke-miterlimit="10" stroke-linecap="round" stroke-linejoin="round"/>
<path d="M8.89999 25.1627H1V14.8627C1 14.1627 1.6 13.5627 2.3 13.5627H7.59999C8.29999 13.5627 8.89999 14.1627 8.89999 14.8627V25.1627Z" fill="url(#paint1_linear_202_368)" stroke="#2C001B" stroke-width="1.5" stroke-miterlimit="10" stroke-linecap="round" stroke-linejoin="round"/>
<path d="M1.20001 16.3627H8.80002" stroke="#2C001B" stroke-width="1.5" stroke-miterlimit="10" stroke-linecap="round" stroke-linejoin="round"/>
<path d="M8.10002 7.36266H1.90002V13.5627H8.10002V7.36266Z" stroke="#2C001B" stroke-width="1.5" stroke-miterlimit="10" stroke-linecap="round" stroke-linejoin="round"/>
<path d="M7.09998 7.36265H2.79999V3.16265L6.19998 1.06265C6.59998 0.862646 7.09998 1.16265 7.09998 1.66265V7.36265Z" fill="url(#paint2_linear_202_368)" stroke="#2C001B" stroke-width="1.5" stroke-miterlimit="10" stroke-linecap="round" stroke-linejoin="round"/>
<defs>
<linearGradient id="paint0_linear_202_368" x1="17.5" y1="25.5" x2="17.5" y2="12" gradientUnits="userSpaceOnUse">
<stop offset="0.159092" stop-color="white"/>
<stop offset="0.279695" stop-color="#EF5997"/>
<stop offset="1" stop-color="#E84287"/>
</linearGradient>
<linearGradient id="paint1_linear_202_368" x1="4.95" y1="13.5627" x2="4.95" y2="25.1627" gradientUnits="userSpaceOnUse">
<stop stop-color="#FF84B7"/>
<stop offset="0.46875" stop-color="#EF5997"/>
<stop offset="1" stop-color="#E84287"/>
</linearGradient>
<linearGradient id="paint2_linear_202_368" x1="4.94998" y1="1" x2="4.94998" y2="7.36265" gradientUnits="userSpaceOnUse">
<stop stop-color="#FF84B7"/>
<stop offset="0.46875" stop-color="#EF5997"/>
<stop offset="1" stop-color="#E84287"/>
</linearGradient>
</defs>
</svg>
